<?xml version="1.0" encoding="utf-8"?>
<!-- Generator: Adobe Illustrator 25.0.0, SVG Export Plug-In . SVG Version: 6.00 Build 0)  -->
<svg version="1.1" id="Capa_1" xmlns="http://www.w3.org/2000/svg" xmlns:xlink="http://www.w3.org/1999/xlink" x="0px" y="0px"
	 viewBox="0 0 117 116" style="enable-background:new 0 0 117 116;" xml:space="preserve">
<style type="text/css">
	.st0{fill:none;}
	.st1{fill:#F9F8F7;}
</style>
<image style="display:none;overflow:visible;enable-background:new    ;" width="117" height="116" id="featured_artist_featured_artist" xlink:href="A3B7B2AC.png" >
</image>
<g>
	<circle class="st0" cx="58.5" cy="58" r="48.3"/>
	<path class="st1" d="M37.9,5.7l5-1.7l0.3,0.8l-4.1,1.4l0.8,2.3l3.4-1.2l0.3,0.8l-3.4,1.2l1.2,3.5l-0.9,0.3L37.9,5.7z"/>
	<path class="st1" d="M44.7,3.5l5.4-1.1l0.2,0.9l-4.5,0.9l0.5,2.4l4.1-0.8l0.2,0.8l-4.1,0.8l0.5,2.7l4.6-0.9l0.2,0.9l-5.6,1.1
		L44.7,3.5z"/>
	<path class="st1" d="M54.6,2l1.1-0.1l3.4,7.7L58,9.7l-1-2.3l-3.1,0.2l-0.7,2.4l-1,0.1L54.6,2z M54.1,6.7l2.6-0.1l-1.1-2.6
		c-0.2-0.4-0.4-1.1-0.4-1.1l0,0c0,0-0.2,0.7-0.3,1.1L54.1,6.7z"/>
	<path class="st1" d="M58.7,1.8l6.2,0.4L64.9,3l-2.6-0.2l-0.4,7l-1-0.1l0.4-7l-2.6-0.2L58.7,1.8z"/>
	<path class="st1" d="M65.6,7.6l1-5.2l1,0.2l-1,5.1c-0.3,1.3,0.4,2,1.6,2.3c1.2,0.2,2.1-0.2,2.3-1.5l1-5.1l1,0.2l-1,5.2
		c-0.4,1.9-1.8,2.4-3.5,2C66.3,10.4,65.2,9.4,65.6,7.6z"/>
	<path class="st1" d="M74.7,4.1l3.5,1.2C79.4,5.8,80,7,79.6,8.2c-0.3,0.9-0.9,1.4-1.9,1.4l0,0c0.7,0.5,0.7,1.1,0.4,2.3
		c-0.3,1.2-0.3,1.6-0.2,1.7l0,0l-1-0.4c-0.1-0.2,0-0.5,0.3-1.8c0.3-1.1,0-1.7-1-2l-2.1-0.7L73,11.9L72,11.5L74.7,4.1z M74.3,8
		l2.2,0.8c1,0.4,1.7,0,2-0.8c0.3-0.9,0.1-1.5-1-1.9l-2.2-0.8L74.3,8z"/>
	<path class="st1" d="M82.2,7l4.9,2.6l-0.4,0.8l-4-2.1l-1.2,2.2l3.7,1.9l-0.4,0.7l-3.7-1.9l-1.3,2.4l4.2,2.2l-0.4,0.8l-5-2.6L82.2,7
		z"/>
	<path class="st1" d="M88.9,10.7l2.3,1.7c1.9,1.4,1.9,3.3,0.5,5.3c-1.4,1.9-3.3,2.5-5.2,1.1l-2.3-1.6L88.9,10.7z M87.1,18
		c1.5,1.1,2.8,0.6,3.9-0.9c1.1-1.5,1.3-2.9-0.2-4L89.2,12l-3.6,5L87.1,18z"/>
	<path class="st1" d="M102.2,22.8l0.7,0.9l-4.4,7.2L97.9,30l1.4-2.1l-1.9-2.5l-2.4,0.8l-0.6-0.8L102.2,22.8z M98.1,25.1l1.6,2
		l1.5-2.3c0.2-0.4,0.7-1,0.7-1l0,0c0,0-0.6,0.2-1.1,0.4L98.1,25.1z"/>
	<path class="st1" d="M105.7,27.4l1.8,3.2c0.7,1.2,0.4,2.4-0.7,3.1c-0.8,0.5-1.6,0.5-2.4-0.2l0,0c0.2,0.8-0.2,1.3-1.2,2
		c-1.1,0.7-1.3,1-1.3,1.2l0,0l-0.5-0.9c0-0.2,0.3-0.4,1.4-1.1c1-0.6,1.1-1.3,0.6-2.2l-1.1-1.9l-2.9,1.7l-0.5-0.9L105.7,27.4z
		 M102.9,30.1l1.2,2c0.6,1,1.3,1.2,2.1,0.7c0.8-0.5,1-1.1,0.4-2.1l-1.2-2.1L102.9,30.1z"/>
	<path class="st1" d="M109.3,33.8l2.4,5.8l-0.8,0.3l-1-2.4l-6.5,2.7l-0.4-0.9l6.5-2.7l-1-2.4L109.3,33.8z"/>
	<path class="st1" d="M112.1,41.1l0.3,0.9l-7.5,2.3l-0.3-0.9L112.1,41.1z"/>
	<path class="st1" d="M107.8,44.6l0.2,0.9c-1.3,0.4-1.8,1.3-1.5,2.8c0.2,1.1,0.9,1.7,1.8,1.5c1.1-0.2,1.1-1.2,1.1-2.6
		c0-1.4,0.2-2.7,1.6-3c1.3-0.3,2.3,0.6,2.6,2.2c0.4,1.9-0.4,2.9-1.8,3.4l-0.2-0.9c1.1-0.4,1.5-1.2,1.2-2.3c-0.2-1-0.8-1.6-1.6-1.5
		c-0.9,0.2-1,1.1-0.9,2.3c0,1.6-0.1,3-1.8,3.4c-1.4,0.3-2.5-0.7-2.8-2.4C105.2,46.2,106.2,45,107.8,44.6z"/>
	<path class="st1" d="M114.3,50.7l0.5,6.2l-0.9,0.1l-0.2-2.6l-7,0.5l-0.1-1l7-0.5l-0.2-2.6L114.3,50.7z"/>
	<path class="st1" d="M114.1,66l-1,5.2l-0.9-0.2l0.8-4.3l-2.4-0.4l-0.7,3.6l-0.8-0.2l0.7-3.6l-3.6-0.7l0.2-1L114.1,66z"/>
	<path class="st1" d="M112.7,73l-1.7,5.3l-0.8-0.3l1.4-4.3l-2.4-0.8l-1.3,3.9l-0.8-0.3l1.3-3.9l-2.6-0.9l-1.5,4.5l-0.9-0.3l1.8-5.4
		L112.7,73z"/>
	<path class="st1" d="M109.1,82.4l-0.5,1l-8.3-0.9l0.5-1l2.5,0.3l1.4-2.8l-1.8-1.8l0.4-0.9L109.1,82.4z M105.3,79.6l-1.1,2.3
		l2.8,0.4c0.5,0.1,1.2,0.2,1.2,0.2l0,0c0,0-0.5-0.5-0.8-0.8L105.3,79.6z"/>
	<path class="st1" d="M107.3,86.1l-3.4,5.2l-0.7-0.5l1.4-2.2l-5.9-3.8l0.5-0.8l5.9,3.8l1.4-2.2L107.3,86.1z"/>
	<path class="st1" d="M98.8,89.1l4,3.5l-0.7,0.7l-3.9-3.4c-1-0.9-1.9-0.7-2.8,0.3c-0.8,0.9-0.9,1.9,0.1,2.8l3.9,3.4l-0.7,0.7l-4-3.5
		c-1.4-1.3-1.1-2.8,0-4C95.9,88.3,97.4,87.9,98.8,89.1z"/>
	<path class="st1" d="M97.3,98.7l-2.8,2.4c-1.1,0.9-2.3,0.9-3.2-0.1c-0.6-0.7-0.8-1.5-0.2-2.4l0,0c-0.8,0.3-1.3,0.1-2.2-0.8
		c-0.9-0.9-1.2-1.1-1.4-1l0,0l0.8-0.7c0.2,0,0.4,0.2,1.4,1.1c0.8,0.8,1.4,0.8,2.2,0.1l1.7-1.4l-2.2-2.5l0.8-0.6L97.3,98.7z
		 M94.1,96.5l-1.8,1.5c-0.8,0.7-0.9,1.5-0.3,2.2c0.6,0.7,1.3,0.8,2.1,0.1l1.8-1.6L94.1,96.5z"/>
	<path class="st1" d="M91.1,103.8l-4.7,3l-0.5-0.7l3.8-2.5l-1.3-2.1l-3.5,2.2l-0.5-0.7l3.5-2.2l-1.5-2.3l-4,2.5l-0.5-0.8l4.8-3.1
		L91.1,103.8z"/>
	<path class="st1" d="M84.5,107.9l-2.6,1.2c-2.2,1-3.8,0-4.8-2.2c-1-2.1-0.5-4.1,1.6-5l2.5-1.2L84.5,107.9z M79.1,102.7
		c-1.7,0.8-1.9,2.2-1.1,3.8c0.8,1.7,1.9,2.5,3.6,1.8l1.7-0.8l-2.5-5.6L79.1,102.7z"/>
	<path class="st1" d="M67.4,113.5l-1.1,0.2l-4-7.4l1.1-0.2l1.2,2.2l3.1-0.5l0.5-2.5l1-0.1L67.4,113.5z M67.5,108.7l-2.5,0.4l1.3,2.5
		c0.2,0.4,0.5,1,0.5,1l0,0c0,0,0.1-0.7,0.2-1.2L67.5,108.7z"/>
	<path class="st1" d="M61.8,114.1l-3.7,0.1c-1.4,0-2.3-0.8-2.4-2.1c0-1,0.4-1.6,1.3-2l0,0c-0.8-0.3-1.1-0.8-1.2-2
		c-0.1-1.3-0.2-1.6-0.4-1.7l0,0l1.1,0c0.2,0.1,0.2,0.4,0.3,1.8c0.1,1.2,0.6,1.6,1.6,1.5l2.2,0l-0.1-3.3l1,0L61.8,114.1z M60.7,110.4
		l-2.3,0c-1.1,0-1.6,0.6-1.6,1.5c0,1,0.5,1.4,1.6,1.4l2.4,0L60.7,110.4z"/>
	<path class="st1" d="M54.4,114.1l-6.2-0.8l0.1-0.9l2.6,0.3l0.9-6.9l1,0.1l-0.9,6.9l2.6,0.3L54.4,114.1z"/>
	<path class="st1" d="M46.7,112.9l-1-0.2l1.7-7.7l1,0.2L46.7,112.9z"/>
	<path class="st1" d="M45.8,107.4l-0.9-0.3c0.3-1.3-0.3-2.2-1.7-2.7c-1-0.3-1.9-0.1-2.2,0.8c-0.3,1,0.5,1.6,1.7,2.3
		c1.2,0.7,2.2,1.5,1.8,2.9c-0.4,1.2-1.7,1.6-3.2,1.1c-1.9-0.6-2.3-1.8-2.1-3.3l0.9,0.3c-0.2,1.1,0.3,1.9,1.4,2.2
		c1,0.3,1.8,0.1,2.1-0.7c0.3-0.8-0.5-1.4-1.5-2c-1.4-0.8-2.6-1.6-2-3.2c0.5-1.4,1.9-1.8,3.5-1.3C45.5,104.4,46.2,105.9,45.8,107.4z"
		/>
	<path class="st1" d="M37.2,110.1l-5.6-2.7l0.4-0.8l2.4,1.1l3-6.3l0.9,0.4l-3,6.3l2.4,1.1L37.2,110.1z"/>
	<path class="st1" d="M24,102.4l-4.1-3.5l0.6-0.7l3.3,2.8l1.6-1.9l-2.8-2.3l0.5-0.6l2.8,2.3l2.4-2.8l0.8,0.6L24,102.4z"/>
	<path class="st1" d="M18.6,97.6l-3.7-4.1l0.6-0.6l3.1,3.4l1.8-1.7l-2.8-3.1l0.6-0.6l2.8,3.1l2-1.8L20,88.7l0.7-0.6l3.8,4.2
		L18.6,97.6z"/>
	<path class="st1" d="M12.3,89.9L11.6,89l4.9-6.8l0.6,0.9l-1.5,2l1.8,2.6l2.5-0.6l0.6,0.8L12.3,89.9z M16.5,87.9l-1.4-2.1L13.4,88
		c-0.3,0.4-0.7,0.9-0.7,0.9l0,0c0,0,0.7-0.2,1.1-0.3L16.5,87.9z"/>
	<path class="st1" d="M10,86.4l-2.9-5.5l0.8-0.4l1.2,2.3l6.2-3.2l0.5,0.9l-6.2,3.2l1.2,2.3L10,86.4z"/>
	<path class="st1" d="M11.5,77.6l-5,1.8l-0.3-0.9l4.9-1.7c1.3-0.4,1.6-1.3,1.1-2.6c-0.4-1.2-1.2-1.7-2.5-1.3l-4.9,1.7l-0.3-0.9
		l5-1.8c1.8-0.6,3,0.4,3.5,2C13.6,75.5,13.3,77,11.5,77.6z"/>
	<path class="st1" d="M3.9,71.5l-0.7-3.6c-0.3-1.4,0.4-2.4,1.7-2.7c0.9-0.2,1.7,0.1,2.2,1l0,0c0.1-0.8,0.6-1.2,1.8-1.5
		c1.2-0.3,1.5-0.5,1.6-0.7l0,0l0.2,1c-0.1,0.2-0.4,0.3-1.7,0.6c-1.1,0.3-1.4,0.8-1.2,1.9l0.4,2.2l3.3-0.6l0.2,1L3.9,71.5z M7.4,69.8
		L7,67.5c-0.2-1.1-0.9-1.5-1.7-1.3c-0.9,0.2-1.3,0.7-1.1,1.8l0.5,2.3L7.4,69.8z"/>
	<path class="st1" d="M2.6,63.6L2.3,58l0.9,0l0.2,4.6l2.5-0.1l-0.2-4.1l0.8,0l0.2,4.1l2.8-0.1l-0.2-4.7l0.9,0l0.3,5.7L2.6,63.6z"/>
	<path class="st1" d="M2.3,55.9L2.6,53c0.2-2.4,1.9-3.3,4.3-3.1c2.3,0.2,3.8,1.5,3.6,3.9l-0.3,2.8L2.3,55.9z M9.5,53.8
		c0.2-1.8-1-2.7-2.8-2.8c-1.8-0.2-3.1,0.4-3.3,2.2L3.2,55l6.1,0.6L9.5,53.8z"/>
	<path class="st1" d="M5.9,38.3l0.4-1l8.4,0.1l-0.4,1l-2.5-0.1l-1.1,2.9l1.9,1.7l-0.4,0.9L5.9,38.3z M10,40.6l0.9-2.4l-2.8-0.1
		c-0.5,0-1.2-0.1-1.2-0.1l0,0c0,0,0.5,0.4,0.9,0.7L10,40.6z"/>
	<path class="st1" d="M8.1,33l1.8-3.2c0.7-1.2,1.9-1.6,3-1c0.8,0.5,1.2,1.2,1,2.1l0,0c0.6-0.6,1.2-0.5,2.3,0
		c1.1,0.5,1.5,0.6,1.6,0.5l0,0l-0.5,0.9c-0.2,0.1-0.5,0-1.7-0.6c-1-0.5-1.6-0.3-2.1,0.6l-1.1,1.9l2.9,1.6L15,36.8L8.1,33z
		 M11.9,33.9l1.1-2c0.5-1,0.3-1.7-0.4-2.1c-0.8-0.5-1.5-0.3-2,0.7l-1.2,2.1L11.9,33.9z"/>
	<path class="st1" d="M11.8,26.6l3.8-5l0.7,0.5l-1.6,2.1l5.6,4.2l-0.6,0.8L14.1,25l-1.6,2.1L11.8,26.6z"/>
	<path class="st1" d="M16.7,20.5l0.7-0.7l5.8,5.3l-0.7,0.7L16.7,20.5z"/>
	<path class="st1" d="M21.9,22.4l0.7-0.7c1,0.9,2.1,0.9,3.2-0.1c0.8-0.7,1-1.6,0.4-2.3c-0.7-0.8-1.6-0.3-2.8,0.4
		c-1.2,0.7-2.4,1.2-3.4,0.1c-0.9-1-0.6-2.3,0.6-3.3c1.5-1.3,2.7-1.1,3.9-0.2l-0.7,0.6c-0.9-0.7-1.8-0.7-2.6,0.1
		c-0.8,0.7-1,1.5-0.5,2.1c0.6,0.7,1.4,0.3,2.5-0.4c1.3-0.8,2.6-1.5,3.8-0.2c1,1.1,0.7,2.5-0.6,3.6C24.6,23.8,23,23.6,21.9,22.4z"/>
	<path class="st1" d="M23.8,13.7l5.1-3.6l0.5,0.7l-2.1,1.5l4,5.7l-0.8,0.6l-4-5.7l-2.1,1.5L23.8,13.7z"/>
</g>
</svg>
