<?xml version="1.0" encoding="utf-8"?>
<!-- Generator: Adobe Illustrator 25.0.1, SVG Export Plug-In . SVG Version: 6.00 Build 0)  -->
<svg version="1.1" id="Capa_1" xmlns="http://www.w3.org/2000/svg" xmlns:xlink="http://www.w3.org/1999/xlink" x="0px" y="0px"
	 viewBox="0 0 263.6 32.2" style="enable-background:new 0 0 263.6 32.2;" xml:space="preserve">
<style type="text/css">
	.st0{display:none;}
	.st1{display:inline;fill:#F9F8F7;}
	.st2{enable-background:new    ;}
	.st3{fill:#F9F8F7;}
</style>
<g class="st0">
	<path class="st1" d="M258.2,7.3c-1.6,0-3-0.6-4.1-1.7s-1.7-2.5-1.7-4.1s0.6-3,1.7-4.1s2.5-1.7,4.1-1.7c1.6,0,3,0.6,4.1,1.7
		s1.7,2.5,1.7,4.1s-0.6,3-1.7,4.1S259.8,7.3,258.2,7.3z M258.2-3.5c-1.4,0-2.5,0.5-3.5,1.4s-1.5,2.1-1.5,3.5c0,1.4,0.5,2.5,1.5,3.5
		s2.1,1.4,3.5,1.4c1.4,0,2.5-0.5,3.5-1.4s1.4-2.1,1.4-3.5c0-1.4-0.5-2.5-1.4-3.5S259.6-3.5,258.2-3.5z M261,5.1h-1.3l-0.8-1.8
		c-0.4-0.9-0.9-1.3-1.3-1.3H257v3.1h-1.1v-7.5h2.1c0.9,0,1.5,0.2,2,0.5s0.7,0.9,0.7,1.5c0,0.5-0.2,0.9-0.5,1.3s-0.8,0.6-1.4,0.7v0
		c0.4,0.1,0.8,0.6,1.2,1.4L261,5.1z M257-1.4V1h0.9c1,0,1.5-0.4,1.5-1.2c0-0.5-0.1-0.8-0.4-0.9s-0.7-0.2-1.3-0.2H257z"/>
</g>
<g class="st2">
	<path class="st3" d="M1.5,1.5H10l4.2,15.1c1.1,3.8,1.9,8.1,1.9,8.1h0.1c0,0,0.8-4.3,1.8-8.1l4.2-15.1H31v30h-5.7V14.3
		c0-2.4,0.3-6.2,0.3-6.2h-0.1c0,0-0.7,3.5-1.3,5.7l-5.2,17.7h-5.8l-5-17.7c-0.6-2.2-1.3-5.7-1.3-5.7H6.8c0,0,0.3,3.8,0.3,6.2v17.2
		H1.5V1.5z"/>
	<path class="st3" d="M35.7,1.5h6.1v30h-6.1V1.5z"/>
	<path class="st3" d="M46.4,1.5h13.8c5.8,0,9.7,3.4,9.7,8.4c0,3.5-1.6,6.2-5.5,7.3v0.1c2.8,0.8,4.2,2.4,4.6,6
		c0.4,4.2,0.3,7.5,1.3,7.9v0.3h-5.8c-0.8-0.3-0.8-3.7-1.1-6.9c-0.3-3.3-2.1-5.1-5.9-5.1h-4.9v12.1h-6.1V1.5z M52.5,14.7H59
		c3.3,0,5-1.7,5-4.1c0-2.4-1.6-4.2-4.8-4.2h-6.6V14.7z"/>
	<path class="st3" d="M82.3,1.5h6.3l10.6,30h-6.3l-2-6.4H79.9l-2,6.4h-6.2L82.3,1.5z M81.4,20.5h7.9l-2.7-8.7
		c-0.5-1.6-1.2-4.6-1.2-4.6h-0.1c0,0-0.8,3-1.3,4.6L81.4,20.5z"/>
	<path class="st3" d="M101.7,1.5h8.6l4.2,15.1c1.1,3.8,1.9,8.1,1.9,8.1h0.1c0,0,0.8-4.3,1.8-8.1l4.2-15.1h8.7v30h-5.7V14.3
		c0-2.4,0.3-6.2,0.3-6.2h-0.1c0,0-0.7,3.5-1.3,5.7l-5.2,17.7h-5.8l-5-17.7c-0.6-2.2-1.3-5.7-1.3-5.7H107c0,0,0.3,3.8,0.3,6.2v17.2
		h-5.6V1.5z"/>
	<path class="st3" d="M144.1,1.5h6.3l10.6,30h-6.3l-2-6.4h-10.8l-2,6.4h-6.2L144.1,1.5z M143.2,20.5h7.9l-2.7-8.7
		c-0.5-1.6-1.2-4.6-1.2-4.6h-0.1c0,0-0.8,3-1.3,4.6L143.2,20.5z"/>
	<path class="st3" d="M160.5,16.6c0-8.9,5.5-15.7,14.4-15.7c7.4,0,11.8,4.4,12.4,10.1h-6c-0.5-3-2.8-5-6.3-5
		c-5.5,0-8.2,4.6-8.2,10.6c0,6.1,3.2,10.5,8.2,10.5c3.6,0,6.1-2.1,6.5-5.3h6c-0.2,2.6-1.3,5.2-3.3,7.1c-2.1,1.9-5,3.2-9.1,3.2
		C166.6,32.1,160.5,25.6,160.5,16.6z"/>
	<path class="st3" d="M190.6,1.5h6.1v11.8h11.8V1.5h6.1v30h-6.1V18.3h-11.8v13.2h-6.1V1.5z"/>
	<path class="st3" d="M217.9,16.6c0-9,5.6-15.7,14.5-15.7c8.9,0,14.5,6.7,14.5,15.7c0,9-5.6,15.6-14.5,15.6
		C223.5,32.2,217.9,25.5,217.9,16.6z M240.6,16.6c0-6-2.7-10.7-8.2-10.7s-8.3,4.7-8.3,10.7c0,6,2.8,10.6,8.3,10.6
		S240.6,22.5,240.6,16.6z"/>
</g>
<g>
	<path class="st3" d="M250,7.1c0-3.6,2.7-6.3,6.3-6.3s6.3,2.7,6.3,6.3c0,3.6-2.7,6.3-6.3,6.3S250,10.8,250,7.1z M261.3,7.1
		c0-3.1-2.1-5.3-5.1-5.3c-2.9,0-5.1,2.3-5.1,5.3c0,3.1,2.2,5.4,5.1,5.4C259.2,12.5,261.3,10.2,261.3,7.1z M253.6,3.7h3.2
		c1.3,0,2.4,0.7,2.4,2c0,0.8-0.4,1.3-1.2,1.6v0.1c0.6,0.2,0.9,0.6,1,1.2c0.2,0.8,0.1,1.6,0.3,1.8v0.1h-1.8c-0.2-0.1-0.2-0.9-0.3-1.5
		c-0.1-0.6-0.4-0.9-1-0.9h-0.9v2.4h-1.8V3.7z M255.4,6.7h1.1c0.6,0,0.9-0.3,0.9-0.8s-0.3-0.8-0.9-0.8h-1.1V6.7z"/>
</g>
</svg>
