<?xml version="1.0" encoding="utf-8"?>
<!-- Generator: Adobe Illustrator 25.0.1, SVG Export Plug-In . SVG Version: 6.00 Build 0)  -->
<svg version="1.1" id="Capa_1" xmlns="http://www.w3.org/2000/svg" xmlns:xlink="http://www.w3.org/1999/xlink" x="0px" y="0px"
	 viewBox="0 0 266.9 47.7" style="enable-background:new 0 0 266.9 47.7;" xml:space="preserve">
<style type="text/css">
	.st0{display:none;}
	.st1{display:inline;}
	.st2{display:inline;clip-path:url(#SVGID_2_);}
	.st3{enable-background:new    ;}
	.st4{fill:#F9F8F7;}
	.st5{fill:none;}
	.st6{display:inline;fill:#F9F8F7;}
	.st7{clip-path:url(#SVGID_4_);}
</style>
<g class="st0">
	<defs>
		<rect id="SVGID_1_" x="-0.4" y="-0.6" width="259" height="35"/>
	</defs>
	<clipPath id="SVGID_2_" class="st1">
		<use xlink:href="#SVGID_1_"  style="overflow:visible;"/>
	</clipPath>
	<g id="Personalizado_1" class="st2">
		<g class="st3">
			<path class="st4" d="M3.4,1.3h8.6l4.2,15.1c1.1,3.8,1.9,8.1,1.9,8.1h0.1c0,0,0.8-4.3,1.8-8.1l4.2-15.1h8.7v30h-5.7V14.2
				c0-2.4,0.3-6.2,0.3-6.2h-0.1c0,0-0.7,3.5-1.3,5.7L21,31.4h-5.8l-5-17.7c-0.6-2.2-1.3-5.7-1.3-5.7H8.7c0,0,0.3,3.8,0.3,6.2v17.2
				H3.4V1.3z"/>
			<path class="st4" d="M37.6,1.3h6.1v30h-6.1V1.3z"/>
			<path class="st4" d="M48.3,1.3h13.8c5.8,0,9.7,3.4,9.7,8.4c0,3.5-1.6,6.2-5.5,7.3v0.1c2.8,0.8,4.2,2.4,4.6,6
				c0.4,4.2,0.3,7.5,1.3,7.9v0.3h-5.8c-0.8-0.3-0.8-3.7-1.1-6.9c-0.3-3.3-2.1-5.1-5.9-5.1h-4.9v12.1h-6.1V1.3z M54.4,14.6h6.5
				c3.3,0,5-1.7,5-4.1c0-2.4-1.6-4.2-4.8-4.2h-6.6V14.6z"/>
			<path class="st4" d="M84.2,1.3h6.3l10.6,30h-6.3l-2-6.4H81.9l-2,6.4h-6.2L84.2,1.3z M83.3,20.3h7.9l-2.7-8.7
				c-0.5-1.6-1.2-4.6-1.2-4.6h-0.1c0,0-0.8,3-1.3,4.6L83.3,20.3z"/>
			<path class="st4" d="M103.6,1.3h8.6l4.2,15.1c1.1,3.8,1.9,8.1,1.9,8.1h0.1c0,0,0.8-4.3,1.8-8.1l4.2-15.1h8.7v30h-5.7V14.2
				c0-2.4,0.3-6.2,0.3-6.2h-0.1c0,0-0.7,3.5-1.3,5.7l-5.2,17.7h-5.8l-5-17.7c-0.6-2.2-1.3-5.7-1.3-5.7h-0.1c0,0,0.3,3.8,0.3,6.2
				v17.2h-5.6V1.3z"/>
			<path class="st4" d="M146,1.3h6.3l10.6,30h-6.3l-2-6.4h-10.8l-2,6.4h-6.2L146,1.3z M145.2,20.3h7.9l-2.7-8.7
				c-0.5-1.6-1.2-4.6-1.2-4.6h-0.1c0,0-0.8,3-1.3,4.6L145.2,20.3z"/>
			<path class="st4" d="M162.5,16.5c0-8.9,5.5-15.7,14.4-15.7c7.4,0,11.8,4.4,12.4,10.1h-6c-0.5-3-2.8-5-6.3-5
				c-5.5,0-8.2,4.6-8.2,10.6c0,6.1,3.2,10.5,8.2,10.5c3.6,0,6.1-2.1,6.5-5.3h6c-0.2,2.6-1.3,5.2-3.3,7.1c-2.1,1.9-5,3.2-9.1,3.2
				C168.5,32,162.5,25.5,162.5,16.5z"/>
			<path class="st4" d="M192.5,1.3h6.1v11.8h11.8V1.3h6.1v30h-6.1V18.2h-11.8v13.2h-6.1V1.3z"/>
			<path class="st4" d="M219.8,16.4c0-9,5.6-15.7,14.5-15.7c8.9,0,14.5,6.7,14.5,15.7c0,9-5.6,15.6-14.5,15.6
				C225.4,32.1,219.8,25.4,219.8,16.4z M242.5,16.4c0-6-2.7-10.7-8.2-10.7s-8.3,4.7-8.3,10.7c0,6,2.8,10.6,8.3,10.6
				S242.5,22.4,242.5,16.4z"/>
		</g>
		<g class="st3">
		</g>
	</g>
</g>
<g>
	<rect x="3.4" y="37.5" class="st5" width="245.4" height="10.9"/>
	<path class="st4" d="M88,41.8c0-2.5,1.6-4.5,4.1-4.5c2.1,0,3.4,1.3,3.5,2.9h-1.7c-0.2-0.9-0.8-1.4-1.8-1.4c-1.6,0-2.3,1.3-2.3,3
		c0,1.8,0.9,3,2.4,3c1,0,1.7-0.6,1.8-1.5h1.7c0,0.8-0.4,1.5-0.9,2c-0.6,0.6-1.4,0.9-2.6,0.9C89.7,46.2,88,44.4,88,41.8z"/>
	<path class="st4" d="M96.5,43.3v-5.8h1.7v5.8c0,0.9,0.4,1.5,1.6,1.5c1.1,0,1.6-0.6,1.6-1.5v-5.8h1.7v5.8c0,1.8-1.1,2.9-3.3,2.9
		C97.7,46.2,96.5,45.2,96.5,43.3z"/>
	<path class="st4" d="M104,37.5h6.9v1.5h-2.6V46h-1.7v-7.1H104V37.5z"/>
	<path class="st4" d="M113.4,37.5h6.9v1.5h-2.6V46h-1.7v-7.1h-2.6V37.5z"/>
	<path class="st4" d="M121.1,37.5h1.7v3.4h3.4v-3.4h1.7V46h-1.7v-3.8h-3.4V46h-1.7V37.5z"/>
	<path class="st4" d="M129.3,37.5h6.3v1.5H131v1.9h4v1.4h-4v2.3h4.6V46h-6.3V37.5z"/>
	<path class="st4" d="M138.4,43.4h1.7c0.1,1,0.7,1.4,1.9,1.4c0.9,0,1.7-0.3,1.7-1.1c0-0.8-0.8-1-2.1-1.3c-1.5-0.3-2.9-0.8-2.9-2.5
		c0-1.7,1.4-2.6,3.3-2.6c1.9,0,3.2,0.9,3.3,2.7h-1.7c-0.1-0.9-0.8-1.3-1.7-1.3c-0.9,0-1.5,0.4-1.5,1c0,0.7,0.6,0.9,1.9,1.2
		c1.8,0.4,3.2,0.8,3.2,2.7c0,1.7-1.4,2.7-3.3,2.7C139.7,46.2,138.4,45.2,138.4,43.4z"/>
	<path class="st4" d="M146.5,37.5h1.7v3.4h3.4v-3.4h1.7V46h-1.7v-3.8h-3.4V46h-1.7V37.5z"/>
	<path class="st4" d="M154.6,37.5h1.7V46h-1.7V37.5z"/>
	<path class="st4" d="M157.3,37.5h6.9v1.5h-2.6V46h-1.7v-7.1h-2.6V37.5z"/>
</g>
<g class="st0">
	<path class="st6" d="M257.6,12.8c-1.6,0-3-0.6-4.1-1.7s-1.7-2.5-1.7-4.1s0.6-3,1.7-4.1s2.5-1.7,4.1-1.7c1.6,0,3,0.6,4.1,1.7
		s1.7,2.5,1.7,4.1s-0.6,3-1.7,4.1S259.2,12.8,257.6,12.8z M257.6,2c-1.4,0-2.5,0.5-3.5,1.4s-1.5,2.1-1.5,3.5c0,1.4,0.5,2.5,1.5,3.5
		s2.1,1.4,3.5,1.4c1.4,0,2.5-0.5,3.5-1.4s1.4-2.1,1.4-3.5c0-1.4-0.5-2.5-1.4-3.5S259,2,257.6,2z M260.4,10.6h-1.3l-0.8-1.8
		c-0.4-0.9-0.9-1.3-1.3-1.3h-0.5v3.1h-1.1V3.1h2.1c0.9,0,1.5,0.2,2,0.5s0.7,0.9,0.7,1.5c0,0.5-0.2,0.9-0.5,1.3s-0.8,0.6-1.4,0.7v0
		c0.4,0.1,0.8,0.6,1.2,1.4L260.4,10.6z M256.4,4.1v2.4h0.9c1,0,1.5-0.4,1.5-1.2c0-0.5-0.1-0.8-0.4-0.9s-0.7-0.2-1.3-0.2H256.4z"/>
</g>
<g>
	<defs>
		<rect id="SVGID_3_" x="-0.5" y="-0.6" width="259" height="35"/>
	</defs>
	<clipPath id="SVGID_4_">
		<use xlink:href="#SVGID_3_"  style="overflow:visible;"/>
	</clipPath>
	<g id="Personalizado_1_1_" class="st7">
		<g class="st3">
			<path class="st4" d="M3.2,1.3h8.6L16,16.4c1.1,3.8,1.9,8.1,1.9,8.1H18c0,0,0.8-4.3,1.8-8.1l4.2-15.1h8.7v30h-5.7V14.2
				c0-2.4,0.3-6.2,0.3-6.2h-0.1c0,0-0.7,3.5-1.3,5.7l-5.2,17.7H15l-5-17.7c-0.6-2.2-1.3-5.7-1.3-5.7H8.5c0,0,0.3,3.8,0.3,6.2v17.2
				H3.2V1.3z"/>
			<path class="st4" d="M37.4,1.3h6.1v30h-6.1V1.3z"/>
			<path class="st4" d="M48.2,1.3H62c5.8,0,9.7,3.4,9.7,8.4c0,3.5-1.6,6.2-5.5,7.3v0.1c2.8,0.8,4.2,2.4,4.6,6
				c0.4,4.2,0.3,7.5,1.3,7.9v0.3h-5.8c-0.8-0.3-0.8-3.7-1.1-6.9c-0.3-3.3-2.1-5.1-5.9-5.1h-4.9v12.1h-6.1V1.3z M54.3,14.6h6.5
				c3.3,0,5-1.7,5-4.1c0-2.4-1.6-4.2-4.8-4.2h-6.6V14.6z"/>
			<path class="st4" d="M84,1.3h6.3l10.6,30h-6.3l-2-6.4H81.7l-2,6.4h-6.2L84,1.3z M83.1,20.3h7.9l-2.7-8.7
				c-0.5-1.6-1.2-4.6-1.2-4.6h-0.1c0,0-0.8,3-1.3,4.6L83.1,20.3z"/>
			<path class="st4" d="M103.4,1.3h8.6l4.2,15.1c1.1,3.8,1.9,8.1,1.9,8.1h0.1c0,0,0.8-4.3,1.8-8.1l4.2-15.1h8.7v30h-5.7V14.2
				c0-2.4,0.3-6.2,0.3-6.2h-0.1c0,0-0.7,3.5-1.3,5.7L121,31.4h-5.8l-5-17.7c-0.6-2.2-1.3-5.7-1.3-5.7h-0.1c0,0,0.3,3.8,0.3,6.2v17.2
				h-5.6V1.3z"/>
			<path class="st4" d="M145.9,1.3h6.3l10.6,30h-6.3l-2-6.4h-10.8l-2,6.4h-6.2L145.9,1.3z M145,20.3h7.9l-2.7-8.7
				c-0.5-1.6-1.2-4.6-1.2-4.6h-0.1c0,0-0.8,3-1.3,4.6L145,20.3z"/>
			<path class="st4" d="M162.3,16.5c0-8.9,5.5-15.7,14.4-15.7c7.4,0,11.8,4.4,12.4,10.1h-6c-0.5-3-2.8-5-6.3-5
				c-5.5,0-8.2,4.6-8.2,10.6c0,6.1,3.2,10.5,8.2,10.5c3.6,0,6.1-2.1,6.5-5.3h6c-0.2,2.6-1.3,5.2-3.3,7.1c-2.1,1.9-5,3.2-9.1,3.2
				C168.3,32,162.3,25.5,162.3,16.5z"/>
			<path class="st4" d="M192.3,1.3h6.1v11.8h11.8V1.3h6.1v30h-6.1V18.2h-11.8v13.2h-6.1V1.3z"/>
			<path class="st4" d="M219.6,16.4c0-9,5.6-15.7,14.5-15.7c8.9,0,14.5,6.7,14.5,15.7c0,9-5.6,15.6-14.5,15.6
				C225.3,32.1,219.6,25.4,219.6,16.4z M242.4,16.4c0-6-2.7-10.7-8.2-10.7s-8.3,4.7-8.3,10.7c0,6,2.8,10.6,8.3,10.6
				S242.4,22.4,242.4,16.4z"/>
		</g>
		<g class="st3">
		</g>
	</g>
</g>
<g>
	<path class="st4" d="M251.7,7c0-3.6,2.7-6.3,6.3-6.3s6.3,2.7,6.3,6.3c0,3.6-2.7,6.3-6.3,6.3S251.7,10.6,251.7,7z M263.1,7
		c0-3.1-2.1-5.3-5.1-5.3c-2.9,0-5.1,2.3-5.1,5.3c0,3.1,2.2,5.4,5.1,5.4C261,12.4,263.1,10.1,263.1,7z M255.3,3.6h3.2
		c1.3,0,2.4,0.7,2.4,2c0,0.8-0.4,1.3-1.2,1.6v0.1c0.6,0.2,0.9,0.6,1,1.2c0.2,0.8,0.1,1.6,0.3,1.8v0.1h-1.8c-0.2-0.1-0.2-0.9-0.3-1.5
		c-0.1-0.6-0.4-0.9-1-0.9h-0.9v2.4h-1.8V3.6z M257.1,6.5h1.1c0.6,0,0.9-0.3,0.9-0.8S258.9,5,258.3,5h-1.1V6.5z"/>
</g>
</svg>
